PathFileType	4	(X/Y/Z)	Run_500 03
DataRate	CameraRate	NumFrames	NumMarkers	Units	OrigDataRate	OrigDataStartFrame	OrigNumFrames
100	100	5	45	mm	100	168	137
Frame#	Time	RASI			LPSI			RPSI			RTH1			RTH2			RTH3			LTH1			LTH2			LTH3			RTB1			RTB2			RTB3			RLMAL			RMMAL			LTB1			LTB2			LTB3			RCAL			RTOE			RMT5			LCAL			LTOE			LMT5			LACR			RACR			CLAV			C7			LPSH			RUA1			RUA2			RUA3			RLEL			RMEL			LUA1			LUA2			LUA3			LLEL			LMEL			RFAsuperior			RFAradius			RFAulna			LFAsuperior			LFAradius			LFAulna			LASI			
		X1	Y1	Z1	X2	Y2	Z2	X3	Y3	Z3	X4	Y4	Z4	X5	Y5	Z5	X6	Y6	Z6	X7	Y7	Z7	X8	Y8	Z8	X9	Y9	Z9	X10	Y10	Z10	X11	Y11	Z11	X12	Y12	Z12	X13	Y13	Z13	X14	Y14	Z14	X15	Y15	Z15	X16	Y16	Z16	X17	Y17	Z17	X18	Y18	Z18	X19	Y19	Z19	X20	Y20	Z20	X21	Y21	Z21	X22	Y22	Z22	X23	Y23	Z23	X24	Y24	Z24	X25	Y25	Z25	X26	Y26	Z26	X27	Y27	Z27	X28	Y28	Z28	X29	Y29	Z29	X30	Y30	Z30	X31	Y31	Z31	X32	Y32	Z32	X33	Y33	Z33	X34	Y34	Z34	X35	Y35	Z35	X36	Y36	Z36	X37	Y37	Z37	X38	Y38	Z38	X39	Y39	Z39	X40	Y40	Z40	X41	Y41	Z41	X42	Y42	Z42	X43	Y43	Z43	X44	Y44	Z44	X45	Y45	Z45	

161	1.93	925.54967	1005.67094	-220.548879	743.706828	1068.415925	-368.676618	760.604571	1056.928959	-284.911415	838.128113	745.416302	-184.109451	916.259321	675.99248	-204.45175	857.39577	577.781843	-217.542869	832.542549	812.549063	-503.870529	937.505027	725.621875	-494.666305	918.284485	618.50269	-472.090746	747.047243	466.151242	-269.292596	702.1966169999999	522.269337	-227.830413	576.5002019999999	531.338284	-271.282052	484.007736	604.593465	-256.947787	491.086878	568.928439	-334.53683	981.761469	397.315022	-414.433758	877.889219	311.548953	-432.673736	918.872707	217.535317	-375.314893	471.860794	655.611444	-332.264278	382.70243	460.666575	-265.482221	396.459747	541.015725	-210.070063	774.55855	93.57125499999999	-312.721914	1003.815196	67.04688299999999	-336.296336	936.221214	56.526676	-401.664118	891.880798	1504.057095	-521.903988	937.1831069999999	1502.604042	-202.57472	987.208562	1433.955605	-344.246087	876.509991	1533.372103	-358.62714	806.648825	1472.731062	-518.1943209999999	866.179209	1374.993994	-100.432087	774.872144	1347.052636	-108.946979	769.715315	1298.849424	-57.672499	767.440922	1232.616574	-25.798629	729.1058420000001	1221.197766	-105.381568	783.072009	1392.631146	-577.30744	715.245111	1328.05356	-539.784296	705.531269	1285.631784	-601.052043	684.546499	1213.125305	-626.387779	680.2462839999999	1198.884836	-538.750355	802.846904	1161.29427	-46.060834	968.262865	1121.076086	-151.398881	951.035392	1067.574133	-114.086442	748.669587	1142.017303	-610.015037	922.4137030000001	1156.393751	-580.9576479999999	908.541847	1092.21603	-600.714109	894.452134	1020.884235	-456.153415	
162	1.94	920.331972	1001.021115	-218.993956	737.23685	1065.146229	-365.656418	754.734287	1054.158196	-282.206533	850.5567160000001	744.690641	-183.018197	934.90656	681.282977	-203.077067	885.268813	578.847951	-215.192301	821.184619	808.749995	-502.175799	923.837952	720.8996100000001	-494.451307	903.0464449999999	613.611414	-470.439104	782.710844	465.132173	-269.369364	736.634772	518.391966	-225.749434	610.55033	523.706248	-269.108742	514.341481	592.981611	-252.707838	523.259096	560.105547	-331.478395	957.912003	391.100026	-411.998418	849.79324	311.326223	-432.714897	881.776171	215.392672	-374.741757	498.782393	646.101269	-326.307754	421.433231	443.995759	-266.893631	430.559171	522.874239	-208.135706	727.722182	95.181057	-312.445404	956.661891	65.64243500000001	-335.43219	888.841034	55.957612	-401.097634	897.743113	1499.003764	-523.329868	933.245151	1498.496147	-201.715698	985.988829	1429.306514	-342.036198	876.515449	1530.226957	-359.654257	812.288042	1467.776472	-523.418066	857.640524	1371.193127	-101.004722	765.826503	1343.912972	-112.898942	758.554541	1296.07104	-61.436088	754.93849	1230.706035	-29.150767	718.858216	1218.325774	-109.472112	794.07682	1383.014091	-581.1716709999999	723.872622	1315.632322	-548.451535	720.154355	1271.950926	-609.676679	704.7873980000001	1199.156654	-635.272114	694.679218	1184.619269	-547.804081	788.0607220000001	1157.210388	-45.343283	955.2464649999999	1105.162392	-141.086319	934.318179	1053.788214	-102.481802	769.050194	1129.886767	-615.568619	940.490979	1148.126378	-579.701233	928.542599	1083.380961	-599.048389	887.671165	1016.15214	-454.932781	
163	1.95	916.189899	998.054748	-218.844581	733.317808	1062.885399	-364.345084	750.0782390000001	1053.091032	-280.486825	863.806956	747.450419	-181.536928	954.798691	692.0775619999999	-203.087299	914.25796	585.688932	-213.155774	808.552082	803.726186	-499.793283	908.4021289999999	714.725762	-493.696251	884.65883	607.271601	-469.127477	819.049441	466.489345	-269.719157	770.504464	516.060015	-224.420232	644.013626	515.321094	-267.250529	542.980736	578.329117	-248.596163	554.234166	548.40676	-328.480788	929.939949	382.015735	-410.327427	819.021151	307.97949	-432.837142	842.219535	211.244269	-374.216103	522.672683	632.613601	-320.424077	462.579963	423.007802	-267.869109	465.011586	500.309816	-206.23766	680.365335	95.885133	-312.965076	908.960076	64.524767	-335.897815	840.994761	55.535525	-402.016441	903.38108	1496.396685	-523.400215	928.943087	1495.921243	-200.697363	984.233359	1426.629959	-339.678424	876.141897	1528.855548	-359.76977	817.891228	1464.966189	-527.134382	849.0367230000001	1370.190975	-101.740016	757.2952739999999	1343.692617	-117.179055	747.845905	1296.080429	-65.549531	742.26226	1231.398406	-32.758678	708.5059230000001	1218.428084	-113.810229	804.837375	1377.145178	-583.719399	733.12094	1306.790765	-556.650541	736.023917	1261.967068	-617.143272	725.840857	1188.796596	-642.568966	709.315067	1174.221881	-555.250893	773.01672	1155.894739	-45.399758	941.455465	1094.196217	-131.694311	916.515079	1044.451048	-93.172398	791.159464	1121.885109	-618.477344	959.160695	1146.072067	-575.373435	949.921113	1080.681641	-594.0258260000001	883.131884	1012.469603	-455.382324	
164	1.96	913.81954	997.028048	-220.838685	732.546366	1062.138357	-365.752846	747.94682	1053.737626	-281.339004	877.431627	753.16386	-180.035832	974.355494	706.781964	-204.077972	942.799749	597.0225820000001	-211.451748	796.9077559999999	799.3068479999999	-498.148471	893.038572	706.765895	-492.8642	864.455967	600.287166	-468.051019	855.159724	470.030534	-269.608537	803.424206	514.9531449999999	-223.491737	676.836865	506.145699	-265.733058	570.564565	560.6476249999999	-244.911492	584.418469	533.823305	-325.5981	898.207764	372.287143	-409.359332	784.338826	304.168966	-432.143681	800.6560930000001	207.212284	-373.378239	544.766798	614.935079	-314.988651	505.970278	399.039803	-268.321045	500.335603	474.414151	-204.561277	632.866363	97.42113000000001	-313.147151	860.758796	63.900463	-336.624931	792.707395	55.453498	-403.011293	907.928232	1496.437378	-522.253137	924.092364	1494.744158	-199.561862	982.28874	1425.639921	-337.369982	875.106055	1528.506498	-359.302686	822.710067	1464.14682	-529.31364	840.2053519999999	1371.226183	-102.470886	748.888326	1346.092608	-121.150685	737.123149	1298.742229	-69.43694000000001	728.859331	1234.57168	-36.011552	697.6234920000001	1221.455975	-117.870821	814.662734	1374.7367	-586.041708	742.764705	1301.924128	-564.0990839999999	752.246483	1255.899927	-623.07411	746.257649	1182.538693	-647.666291	723.658909	1168.205133	-560.766521	757.582892	1157.485409	-46.122895	927.3996959999999	1089.441966	-123.874805	898.655256	1040.490579	-86.94734699999999	813.4692209999999	1118.740363	-618.7853689999999	976.847056	1151.205838	-568.015957	971.402688	1085.229345	-585.95721	881.279937	1010.143808	-457.909086	
165	1.97	912.9742230000001	998.390119	-224.206598	733.61239	1063.113111	-368.709598	747.758883	1055.984474	-283.962766	890.515718	761.259051	-178.841931	991.846323	723.669073	-205.245955	969.37012	611.507263	-210.194274	787.45235	797.381635	-497.832487	878.511271	698.554169	-491.95097	843.319389	594.499017	-467.154665	890.398434	475.629498	-268.909977	835.3523709999999	515.008032	-222.675002	709.353562	496.052512	-264.499643	598.0014210000001	539.993063	-241.830936	614.420811	516.3376960000001	-322.8424	863.630578	364.642118	-409.240907	746.209332	302.746611	-430.962436	757.918886	205.481675	-372.724637	566.393005	593.127468	-310.257135	551.307136	373.205477	-268.290512	537.05566	446.114589	-203.120406	585.798948	101.82707	-312.667737	811.702359	63.476708	-336.668062	743.907659	55.676543	-403.231229	911.160482	1498.989204	-520.503327	918.68659	1495.091061	-198.415543	980.391113	1426.338089	-335.102008	873.5889979999999	1529.220542	-358.696518	826.530472	1465.418385	-530.543705	830.919921	1373.770844	-103.078411	739.95104	1350.57396	-124.356491	725.836943	1303.58285	-72.759033	714.665912	1239.91481	-38.865427	685.839569	1226.86154	-121.529512	823.526213	1375.288251	-588.648628	752.611926	1300.675351	-570.45305	767.759934	1253.389827	-627.224066	765.02116	1180.040104	-650.508889	737.516837	1166.128302	-564.394037	741.969785	1162.005388	-47.484572	913.592975	1091.02713	-118.056001	881.817845	1041.976096	-83.85307400000001	834.463512	1120.417484	-617.040243	992.17495	1163.153924	-558.505221	991.6307	1096.778258	-575.733985	881.445936	1009.136749	-461.011997	
